<mxfile host="app.diagrams.net" modified="2024-05-17T17:24:32.822Z" agent="Mozilla/5.0 (Macintosh; Intel Mac OS X 10.15; rv:125.0) Gecko/20100101 Firefox/125.0" etag="84mpB7Gm98mvtt5FZdpd" version="24.3.1" type="github">
  <diagram name="Page-1" id="IHHVQKKZ2Jhw7GBd2iYf">
    <mxGraphModel dx="2150" dy="1911" grid="1" gridSize="10" guides="1" tooltips="1" connect="1" arrows="1" fold="1" page="1" pageScale="1" pageWidth="827" pageHeight="1169" math="0" shadow="0">
      <root>
        <mxCell id="0" />
        <mxCell id="1" parent="0" />
        <mxCell id="40_aACyzk-iuKu26dcUJ-3" value="" style="edgeStyle=orthogonalEdgeStyle;rounded=0;orthogonalLoop=1;jettySize=auto;html=1;" parent="1" source="40_aACyzk-iuKu26dcUJ-1" target="40_aACyzk-iuKu26dcUJ-2" edge="1">
          <mxGeometry relative="1" as="geometry" />
        </mxCell>
        <mxCell id="40_aACyzk-iuKu26dcUJ-1" value="https://www.google.com" style="rounded=1;whiteSpace=wrap;html=1;" parent="1" vertex="1">
          <mxGeometry x="-414" y="120" width="210" height="20" as="geometry" />
        </mxCell>
        <mxCell id="40_aACyzk-iuKu26dcUJ-5" value="" style="edgeStyle=orthogonalEdgeStyle;rounded=0;orthogonalLoop=1;jettySize=auto;html=1;entryX=0;entryY=0.5;entryDx=0;entryDy=0;exitX=0;exitY=0.25;exitDx=0;exitDy=0;" parent="1" source="40_aACyzk-iuKu26dcUJ-2" target="40_aACyzk-iuKu26dcUJ-45" edge="1">
          <mxGeometry relative="1" as="geometry">
            <mxPoint x="300" y="90" as="sourcePoint" />
            <mxPoint x="500" y="-90" as="targetPoint" />
            <Array as="points">
              <mxPoint x="320" y="133" />
              <mxPoint x="320" y="50" />
              <mxPoint x="500" y="50" />
              <mxPoint x="500" y="-120" />
            </Array>
          </mxGeometry>
        </mxCell>
        <mxCell id="40_aACyzk-iuKu26dcUJ-18" style="edgeStyle=orthogonalEdgeStyle;rounded=0;orthogonalLoop=1;jettySize=auto;html=1;entryX=0;entryY=0.5;entryDx=0;entryDy=0;" parent="1" source="40_aACyzk-iuKu26dcUJ-2" target="40_aACyzk-iuKu26dcUJ-11" edge="1">
          <mxGeometry relative="1" as="geometry">
            <Array as="points">
              <mxPoint x="390" y="290" />
              <mxPoint x="480" y="290" />
              <mxPoint x="480" y="420" />
            </Array>
          </mxGeometry>
        </mxCell>
        <mxCell id="40_aACyzk-iuKu26dcUJ-25" style="edgeStyle=orthogonalEdgeStyle;rounded=0;orthogonalLoop=1;jettySize=auto;html=1;exitX=0.375;exitY=1;exitDx=0;exitDy=0;entryX=0.75;entryY=0;entryDx=0;entryDy=0;" parent="1" source="40_aACyzk-iuKu26dcUJ-2" target="40_aACyzk-iuKu26dcUJ-34" edge="1">
          <mxGeometry relative="1" as="geometry">
            <mxPoint x="40" y="270" as="targetPoint" />
          </mxGeometry>
        </mxCell>
        <mxCell id="40_aACyzk-iuKu26dcUJ-2" value="DNS Resolver" style="shape=hexagon;perimeter=hexagonPerimeter2;whiteSpace=wrap;html=1;fixedSize=1;" parent="1" vertex="1">
          <mxGeometry x="330" y="110" width="120" height="80" as="geometry" />
        </mxCell>
        <mxCell id="40_aACyzk-iuKu26dcUJ-6" value="1A" style="ellipse;whiteSpace=wrap;html=1;aspect=fixed;fontSize=24;verticalAlign=middle;align=center;" parent="1" vertex="1">
          <mxGeometry x="364" y="30" width="50" height="50" as="geometry" />
        </mxCell>
        <mxCell id="40_aACyzk-iuKu26dcUJ-8" value="" style="endArrow=classic;html=1;rounded=0;exitX=0.75;exitY=1;exitDx=0;exitDy=0;entryX=0.625;entryY=0;entryDx=0;entryDy=0;dashed=1;" parent="1" source="40_aACyzk-iuKu26dcUJ-45" target="40_aACyzk-iuKu26dcUJ-2" edge="1">
          <mxGeometry width="50" height="50" relative="1" as="geometry">
            <mxPoint x="390" y="170" as="sourcePoint" />
            <mxPoint x="440" y="120" as="targetPoint" />
            <Array as="points">
              <mxPoint x="550" y="50" />
              <mxPoint x="480" y="90" />
            </Array>
          </mxGeometry>
        </mxCell>
        <mxCell id="40_aACyzk-iuKu26dcUJ-9" value="1B" style="ellipse;whiteSpace=wrap;html=1;aspect=fixed;fontSize=24;verticalAlign=middle;align=center;" parent="1" vertex="1">
          <mxGeometry x="585" y="-10" width="50" height="50" as="geometry" />
        </mxCell>
        <mxCell id="40_aACyzk-iuKu26dcUJ-10" value="returns authoritative name servers for &quot;com&quot;" style="rounded=0;whiteSpace=wrap;html=1;fillColor=#fff2cc;strokeColor=#d6b656;" parent="1" vertex="1">
          <mxGeometry x="607.5" y="25" width="120" height="60" as="geometry" />
        </mxCell>
        <mxCell id="40_aACyzk-iuKu26dcUJ-19" value="2A" style="ellipse;whiteSpace=wrap;html=1;aspect=fixed;fontSize=24;verticalAlign=middle;align=center;" parent="1" vertex="1">
          <mxGeometry x="350" y="250" width="50" height="50" as="geometry" />
        </mxCell>
        <mxCell id="40_aACyzk-iuKu26dcUJ-21" value="queries authoritative name servers for &quot;com&quot; to find out which name servers are authoritative for &quot;google.com&quot;" style="rounded=0;whiteSpace=wrap;html=1;fillColor=#fff2cc;strokeColor=#d6b656;" parent="1" vertex="1">
          <mxGeometry x="220" y="290" width="150" height="90" as="geometry" />
        </mxCell>
        <mxCell id="40_aACyzk-iuKu26dcUJ-22" value="" style="endArrow=classic;html=1;rounded=0;exitX=0.5;exitY=0;exitDx=0;exitDy=0;entryX=1;entryY=0.75;entryDx=0;entryDy=0;dashed=1;" parent="1" source="40_aACyzk-iuKu26dcUJ-11" target="40_aACyzk-iuKu26dcUJ-2" edge="1">
          <mxGeometry width="50" height="50" relative="1" as="geometry">
            <mxPoint x="550" y="40" as="sourcePoint" />
            <mxPoint x="415" y="120" as="targetPoint" />
            <Array as="points">
              <mxPoint x="500" y="300" />
            </Array>
          </mxGeometry>
        </mxCell>
        <mxCell id="40_aACyzk-iuKu26dcUJ-23" value="2B" style="ellipse;whiteSpace=wrap;html=1;aspect=fixed;fontSize=24;verticalAlign=middle;align=center;" parent="1" vertex="1">
          <mxGeometry x="460" y="230" width="50" height="50" as="geometry" />
        </mxCell>
        <mxCell id="40_aACyzk-iuKu26dcUJ-24" value="returns authoritative name servers (provided by google.com) for &quot;google.com&quot;" style="rounded=0;whiteSpace=wrap;html=1;fillColor=#fff2cc;strokeColor=#d6b656;" parent="1" vertex="1">
          <mxGeometry x="500" y="200" width="220" height="60" as="geometry" />
        </mxCell>
        <mxCell id="40_aACyzk-iuKu26dcUJ-26" value="3A" style="ellipse;whiteSpace=wrap;html=1;aspect=fixed;fontSize=24;verticalAlign=middle;align=center;" parent="1" vertex="1">
          <mxGeometry x="20" y="260" width="50" height="50" as="geometry" />
        </mxCell>
        <mxCell id="40_aACyzk-iuKu26dcUJ-28" value="" style="group" parent="1" vertex="1" connectable="0">
          <mxGeometry x="-180" y="390" width="255" height="100" as="geometry" />
        </mxCell>
        <mxCell id="40_aACyzk-iuKu26dcUJ-29" value="" style="rounded=0;whiteSpace=wrap;html=1;" parent="40_aACyzk-iuKu26dcUJ-28" vertex="1">
          <mxGeometry width="255" height="100" as="geometry" />
        </mxCell>
        <mxCell id="40_aACyzk-iuKu26dcUJ-30" value="" style="shape=cube;whiteSpace=wrap;html=1;boundedLbl=1;backgroundOutline=1;darkOpacity=0.05;darkOpacity2=0.1;fillColor=#d5e8d4;strokeColor=#82b366;" parent="40_aACyzk-iuKu26dcUJ-28" vertex="1">
          <mxGeometry x="5" y="40" width="60" height="50" as="geometry" />
        </mxCell>
        <mxCell id="40_aACyzk-iuKu26dcUJ-31" value="" style="shape=cube;whiteSpace=wrap;html=1;boundedLbl=1;backgroundOutline=1;darkOpacity=0.05;darkOpacity2=0.1;fillColor=#d5e8d4;strokeColor=#82b366;" parent="40_aACyzk-iuKu26dcUJ-28" vertex="1">
          <mxGeometry x="65" y="40" width="60" height="50" as="geometry" />
        </mxCell>
        <mxCell id="40_aACyzk-iuKu26dcUJ-32" value="" style="shape=cube;whiteSpace=wrap;html=1;boundedLbl=1;backgroundOutline=1;darkOpacity=0.05;darkOpacity2=0.1;fillColor=#d5e8d4;strokeColor=#82b366;" parent="40_aACyzk-iuKu26dcUJ-28" vertex="1">
          <mxGeometry x="125" y="40" width="60" height="50" as="geometry" />
        </mxCell>
        <mxCell id="40_aACyzk-iuKu26dcUJ-33" value="" style="shape=cube;whiteSpace=wrap;html=1;boundedLbl=1;backgroundOutline=1;darkOpacity=0.05;darkOpacity2=0.1;fillColor=#d5e8d4;strokeColor=#82b366;" parent="40_aACyzk-iuKu26dcUJ-28" vertex="1">
          <mxGeometry x="185" y="40" width="60" height="50" as="geometry" />
        </mxCell>
        <mxCell id="40_aACyzk-iuKu26dcUJ-34" value="Authoritative name servers for &quot;google.com&quot;" style="text;html=1;align=center;verticalAlign=middle;whiteSpace=wrap;rounded=0;fontStyle=1" parent="40_aACyzk-iuKu26dcUJ-28" vertex="1">
          <mxGeometry x="7.5" y="5" width="240" height="30" as="geometry" />
        </mxCell>
        <mxCell id="40_aACyzk-iuKu26dcUJ-43" value="" style="group" parent="1" vertex="1" connectable="0">
          <mxGeometry x="540" y="330" width="255" height="180" as="geometry" />
        </mxCell>
        <mxCell id="40_aACyzk-iuKu26dcUJ-11" value="" style="rounded=0;whiteSpace=wrap;html=1;" parent="40_aACyzk-iuKu26dcUJ-43" vertex="1">
          <mxGeometry width="255" height="180" as="geometry" />
        </mxCell>
        <mxCell id="40_aACyzk-iuKu26dcUJ-12" value="" style="shape=cube;whiteSpace=wrap;html=1;boundedLbl=1;backgroundOutline=1;darkOpacity=0.05;darkOpacity2=0.1;fillColor=#dae8fc;strokeColor=#6c8ebf;" parent="40_aACyzk-iuKu26dcUJ-43" vertex="1">
          <mxGeometry x="10" y="40" width="60" height="50" as="geometry" />
        </mxCell>
        <mxCell id="40_aACyzk-iuKu26dcUJ-13" value="" style="shape=cube;whiteSpace=wrap;html=1;boundedLbl=1;backgroundOutline=1;darkOpacity=0.05;darkOpacity2=0.1;fillColor=#dae8fc;strokeColor=#6c8ebf;" parent="40_aACyzk-iuKu26dcUJ-43" vertex="1">
          <mxGeometry x="70" y="40" width="60" height="50" as="geometry" />
        </mxCell>
        <mxCell id="40_aACyzk-iuKu26dcUJ-14" value="" style="shape=cube;whiteSpace=wrap;html=1;boundedLbl=1;backgroundOutline=1;darkOpacity=0.05;darkOpacity2=0.1;fillColor=#dae8fc;strokeColor=#6c8ebf;" parent="40_aACyzk-iuKu26dcUJ-43" vertex="1">
          <mxGeometry x="130" y="40" width="60" height="50" as="geometry" />
        </mxCell>
        <mxCell id="40_aACyzk-iuKu26dcUJ-15" value="" style="shape=cube;whiteSpace=wrap;html=1;boundedLbl=1;backgroundOutline=1;darkOpacity=0.05;darkOpacity2=0.1;fillColor=#dae8fc;strokeColor=#6c8ebf;" parent="40_aACyzk-iuKu26dcUJ-43" vertex="1">
          <mxGeometry x="190" y="40" width="60" height="50" as="geometry" />
        </mxCell>
        <mxCell id="40_aACyzk-iuKu26dcUJ-16" value="Authoritative name servers for TLD &quot;com&quot;" style="text;html=1;align=center;verticalAlign=middle;whiteSpace=wrap;rounded=0;fontStyle=1" parent="40_aACyzk-iuKu26dcUJ-43" vertex="1">
          <mxGeometry x="7.5" y="5" width="240" height="30" as="geometry" />
        </mxCell>
        <mxCell id="40_aACyzk-iuKu26dcUJ-39" value="" style="shape=cube;whiteSpace=wrap;html=1;boundedLbl=1;backgroundOutline=1;darkOpacity=0.05;darkOpacity2=0.1;fillColor=#dae8fc;strokeColor=#6c8ebf;" parent="40_aACyzk-iuKu26dcUJ-43" vertex="1">
          <mxGeometry x="10" y="100" width="60" height="50" as="geometry" />
        </mxCell>
        <mxCell id="40_aACyzk-iuKu26dcUJ-40" value="" style="shape=cube;whiteSpace=wrap;html=1;boundedLbl=1;backgroundOutline=1;darkOpacity=0.05;darkOpacity2=0.1;fillColor=#dae8fc;strokeColor=#6c8ebf;" parent="40_aACyzk-iuKu26dcUJ-43" vertex="1">
          <mxGeometry x="70" y="100" width="60" height="50" as="geometry" />
        </mxCell>
        <mxCell id="40_aACyzk-iuKu26dcUJ-41" value="" style="shape=cube;whiteSpace=wrap;html=1;boundedLbl=1;backgroundOutline=1;darkOpacity=0.05;darkOpacity2=0.1;fillColor=#dae8fc;strokeColor=#6c8ebf;" parent="40_aACyzk-iuKu26dcUJ-43" vertex="1">
          <mxGeometry x="130" y="100" width="60" height="50" as="geometry" />
        </mxCell>
        <mxCell id="40_aACyzk-iuKu26dcUJ-42" value="" style="shape=cube;whiteSpace=wrap;html=1;boundedLbl=1;backgroundOutline=1;darkOpacity=0.05;darkOpacity2=0.1;fillColor=#dae8fc;strokeColor=#6c8ebf;" parent="40_aACyzk-iuKu26dcUJ-43" vertex="1">
          <mxGeometry x="190" y="100" width="60" height="50" as="geometry" />
        </mxCell>
        <mxCell id="40_aACyzk-iuKu26dcUJ-55" value="" style="group" parent="1" vertex="1" connectable="0">
          <mxGeometry x="520" y="-170" width="240" height="100" as="geometry" />
        </mxCell>
        <mxCell id="40_aACyzk-iuKu26dcUJ-45" value="" style="rounded=0;whiteSpace=wrap;html=1;" parent="40_aACyzk-iuKu26dcUJ-55" vertex="1">
          <mxGeometry x="20" width="200" height="100" as="geometry" />
        </mxCell>
        <mxCell id="40_aACyzk-iuKu26dcUJ-46" value="" style="shape=cube;whiteSpace=wrap;html=1;boundedLbl=1;backgroundOutline=1;darkOpacity=0.05;darkOpacity2=0.1;fillColor=#f8cecc;strokeColor=#b85450;" parent="40_aACyzk-iuKu26dcUJ-55" vertex="1">
          <mxGeometry x="30" y="40" width="60" height="50" as="geometry" />
        </mxCell>
        <mxCell id="40_aACyzk-iuKu26dcUJ-47" value="" style="shape=cube;whiteSpace=wrap;html=1;boundedLbl=1;backgroundOutline=1;darkOpacity=0.05;darkOpacity2=0.1;fillColor=#f8cecc;strokeColor=#b85450;" parent="40_aACyzk-iuKu26dcUJ-55" vertex="1">
          <mxGeometry x="90" y="40" width="60" height="50" as="geometry" />
        </mxCell>
        <mxCell id="40_aACyzk-iuKu26dcUJ-48" value="" style="shape=cube;whiteSpace=wrap;html=1;boundedLbl=1;backgroundOutline=1;darkOpacity=0.05;darkOpacity2=0.1;fillColor=#f8cecc;strokeColor=#b85450;" parent="40_aACyzk-iuKu26dcUJ-55" vertex="1">
          <mxGeometry x="150" y="40" width="60" height="50" as="geometry" />
        </mxCell>
        <mxCell id="40_aACyzk-iuKu26dcUJ-50" value="Root Servers" style="text;html=1;align=center;verticalAlign=middle;whiteSpace=wrap;rounded=0;fontStyle=1" parent="40_aACyzk-iuKu26dcUJ-55" vertex="1">
          <mxGeometry width="240" height="30" as="geometry" />
        </mxCell>
        <mxCell id="40_aACyzk-iuKu26dcUJ-4" value="query root servers for authoritative name server for &quot;com&quot; TLD" style="whiteSpace=wrap;html=1;fillColor=#fff2cc;strokeColor=#d6b656;" parent="1" vertex="1">
          <mxGeometry x="270" y="-20" width="120" height="60" as="geometry" />
        </mxCell>
        <mxCell id="40_aACyzk-iuKu26dcUJ-57" value="request for DNS record" style="rounded=0;whiteSpace=wrap;html=1;fillColor=#fff2cc;strokeColor=#d6b656;" parent="1" vertex="1">
          <mxGeometry x="-90" y="220" width="120" height="60" as="geometry" />
        </mxCell>
        <mxCell id="40_aACyzk-iuKu26dcUJ-58" value="" style="endArrow=classic;html=1;rounded=0;exitX=0.25;exitY=0;exitDx=0;exitDy=0;entryX=0;entryY=0.75;entryDx=0;entryDy=0;dashed=1;" parent="1" source="40_aACyzk-iuKu26dcUJ-34" target="40_aACyzk-iuKu26dcUJ-2" edge="1">
          <mxGeometry width="50" height="50" relative="1" as="geometry">
            <mxPoint x="100" y="240" as="sourcePoint" />
            <mxPoint x="150" y="190" as="targetPoint" />
            <Array as="points">
              <mxPoint x="-250" y="210" />
            </Array>
          </mxGeometry>
        </mxCell>
        <mxCell id="40_aACyzk-iuKu26dcUJ-59" value="3B" style="ellipse;whiteSpace=wrap;html=1;aspect=fixed;fontSize=24;verticalAlign=middle;align=center;" parent="1" vertex="1">
          <mxGeometry x="-260" y="225" width="50" height="50" as="geometry" />
        </mxCell>
        <mxCell id="40_aACyzk-iuKu26dcUJ-60" value="returns DNS record for google.com" style="rounded=0;whiteSpace=wrap;html=1;fillColor=#fff2cc;strokeColor=#d6b656;" parent="1" vertex="1">
          <mxGeometry x="-360" y="260" width="120" height="60" as="geometry" />
        </mxCell>
        <mxCell id="40_aACyzk-iuKu26dcUJ-61" value="DNS Record" style="swimlane;fontStyle=0;childLayout=stackLayout;horizontal=1;startSize=30;horizontalStack=0;resizeParent=1;resizeParentMax=0;resizeLast=0;collapsible=1;marginBottom=0;whiteSpace=wrap;html=1;fillColor=#f0a30a;fontColor=#000000;strokeColor=#BD7000;" parent="1" vertex="1">
          <mxGeometry x="-490" y="170" width="140" height="120" as="geometry" />
        </mxCell>
        <mxCell id="40_aACyzk-iuKu26dcUJ-62" value="...." style="text;strokeColor=#BD7000;fillColor=#f0a30a;align=left;verticalAlign=middle;spacingLeft=4;spacingRight=4;overflow=hidden;points=[[0,0.5],[1,0.5]];portConstraint=eastwest;rotatable=0;whiteSpace=wrap;html=1;fontColor=#000000;" parent="40_aACyzk-iuKu26dcUJ-61" vertex="1">
          <mxGeometry y="30" width="140" height="30" as="geometry" />
        </mxCell>
        <mxCell id="40_aACyzk-iuKu26dcUJ-63" value="...." style="text;strokeColor=#BD7000;fillColor=#f0a30a;align=left;verticalAlign=middle;spacingLeft=4;spacingRight=4;overflow=hidden;points=[[0,0.5],[1,0.5]];portConstraint=eastwest;rotatable=0;whiteSpace=wrap;html=1;fontColor=#000000;" parent="40_aACyzk-iuKu26dcUJ-61" vertex="1">
          <mxGeometry y="60" width="140" height="30" as="geometry" />
        </mxCell>
        <mxCell id="40_aACyzk-iuKu26dcUJ-64" value="...." style="text;strokeColor=#BD7000;fillColor=#f0a30a;align=left;verticalAlign=middle;spacingLeft=4;spacingRight=4;overflow=hidden;points=[[0,0.5],[1,0.5]];portConstraint=eastwest;rotatable=0;whiteSpace=wrap;html=1;fontColor=#000000;" parent="40_aACyzk-iuKu26dcUJ-61" vertex="1">
          <mxGeometry y="90" width="140" height="30" as="geometry" />
        </mxCell>
        <mxCell id="40_aACyzk-iuKu26dcUJ-66" value="" style="verticalLabelPosition=bottom;verticalAlign=top;html=1;shape=mxgraph.basic.sun;fillColor=#e3c800;strokeColor=#B09500;fontColor=#000000;" parent="1" vertex="1">
          <mxGeometry x="-567" y="98" width="140" height="145" as="geometry" />
        </mxCell>
      </root>
    </mxGraphModel>
  </diagram>
</mxfile>
